<svg width="78" height="99" viewBox="0 0 78 99" fill="none" xmlns="http://www.w3.org/2000/svg">
<path d="M25.4928 61.579H10.3558V53.5985C10.3558 42.6145 19.3441 33.6255 30.3288 33.6255H47.4698C58.4578 33.6255 67.4468 42.6138 67.4468 53.5985V61.579H52.3018V53.5985C52.3018 52.7157 51.587 52.0047 50.708 52.0047C49.8252 52.0047 49.1142 52.7195 49.1142 53.5985V61.579H28.6882V53.5985C28.6882 52.7157 27.9695 52.0047 27.0866 52.0047C26.2038 52.0047 25.4928 52.7195 25.4928 53.5985V61.579ZM38.8988 28.2C46.6644 28.2 52.9968 21.8719 52.9968 14.102C52.9968 6.3364 46.6648 0 38.8988 0C31.1328 0 24.7968 6.3359 24.7968 14.102C24.7968 21.8676 31.1327 28.2 38.8988 28.2ZM77.7968 68.841V94.935C77.7968 97.1694 75.9648 99.0014 73.7304 99.0014H4.0664C1.832 99.0014 0 97.1694 0 94.935V68.841C0 66.6066 1.832 64.7746 4.0664 64.7746H73.7264C75.9647 64.7746 77.7968 66.6027 77.7968 68.841ZM53.7418 87.435C53.7418 86.5522 53.027 85.8412 52.148 85.8412H25.652C24.7692 85.8412 24.0504 86.556 24.0504 87.435C24.0504 88.3178 24.7692 89.0366 25.652 89.0366H52.144C53.0268 89.0366 53.7418 88.3178 53.7418 87.435ZM63.7688 76.333C63.7688 75.4502 63.05 74.7392 62.175 74.7392L15.62 74.7353C14.7372 74.7353 14.0262 75.4501 14.0262 76.3291C14.0262 77.2119 14.741 77.9307 15.62 77.9307H62.175C63.05 77.9346 63.7688 77.2159 63.7688 76.333Z" fill="white"/>
</svg>
