<svg width="81" height="81" viewBox="0 0 81 81" fill="none" xmlns="http://www.w3.org/2000/svg">
<path fill-rule="evenodd" clip-rule="evenodd" d="M81 40.5C81 62.867 62.867 81 40.5 81C18.133 81 0 62.867 0 40.5C0 18.133 18.133 0 40.5 0C62.867 0 81 18.133 81 40.5ZM51 18.285C51 21.7577 48.1836 24.5702 44.7148 24.5702C41.2421 24.5702 38.4296 21.7577 38.4296 18.285C38.4296 14.8123 41.2421 11.9998 44.7148 11.9998C48.1836 11.9998 51 14.8123 51 18.285ZM32.145 33.34L45.868 31.3361C46.5868 31.2306 47.1727 31.9025 46.9696 32.6017L38.8798 60.5817C38.5282 62.4567 43.165 59.8551 46.3525 57.8747C47.2041 57.3435 48.1728 58.195 47.6767 59.0661C45.1689 63.4684 39.8915 70.8121 33.5557 68.57C27.1807 66.3161 28.7823 61.1794 30.7119 55.004C31.0088 54.0431 31.3174 53.0626 31.6025 52.0587C32.3095 49.5782 33.208 47.0899 34.0009 44.8907C35.5907 40.4845 36.7548 37.254 35.1064 37.668C33.1494 38.1563 30.7314 36.3555 31.415 33.9336C31.5049 33.6055 31.8052 33.3869 32.145 33.34Z" fill="#312450"/>
</svg>
