<svg width="512" height="512" viewBox="0 0 512 512" fill="none" xmlns="http://www.w3.org/2000/svg">
<path d="M472.014 39.9832C418.689 -13.3278 332.24 -13.3278 278.93 39.9832L202.746 116.137C208.777 115.481 214.871 115.199 220.996 115.199C240.276 115.199 259.024 118.262 276.773 124.167L319.943 81.0122C334.77 66.1692 354.488 58.0132 375.456 58.0132C396.426 58.0132 416.144 66.1692 430.971 81.0122C445.799 95.8242 453.952 115.511 453.952 136.51C453.952 157.478 445.799 177.196 430.971 192.008L346.506 276.474C331.68 291.318 311.961 299.472 290.993 299.472C269.993 299.472 250.307 291.318 235.465 276.474C228.246 269.286 222.622 260.911 218.747 251.786C209.122 252.317 200.123 256.317 193.248 263.191L170.749 285.72C176.905 297.125 184.811 307.875 194.436 317.533C247.746 370.846 334.21 370.846 387.535 317.533L472.015 233.036C525.309 179.728 525.309 93.2943 472.014 39.9832Z" fill="white"/>
<path d="M291.898 396.752C272.586 396.752 253.65 393.627 235.496 387.471L192.029 430.94C177.217 445.784 157.5 453.939 136.532 453.939C115.564 453.939 95.8778 445.784 81.0338 430.94C66.1908 416.127 58.0347 396.411 58.0347 375.442C58.0347 354.473 66.1908 334.754 81.0338 319.913L165.499 235.448C180.342 220.636 200.029 212.48 220.997 212.48C241.996 212.48 261.683 220.636 276.509 235.448C283.729 242.666 289.366 251.041 293.259 260.165C302.915 259.665 311.93 255.634 318.805 248.76L341.273 226.261C335.117 214.823 327.195 204.074 317.555 194.418C264.245 141.107 177.781 141.107 124.471 194.418L40.0057 278.915C-13.3353 332.228 -13.3353 418.659 40.0057 472.001C93.3158 525.314 179.75 525.314 233.059 472.001L309.117 395.942C303.446 396.471 297.712 396.755 291.93 396.755L291.898 396.752Z" fill="white"/>
</svg>
