<svg width="67" height="93" viewBox="0 0 67 93" fill="none" xmlns="http://www.w3.org/2000/svg">
<path d="M9.31584 55.2149C8.94475 55.4883 8.59709 55.8008 8.29634 56.1641C7.6479 56.9414 7.25334 57.8672 7.07754 58.8477C6.46816 59.961 5.92134 61.1329 5.35874 62.5547C1.14394 73.2187 -1.64126 80.2617 1.08144 85.0037C2.60094 87.6443 5.72984 89.2889 10.847 90.1678C11.8587 91.7616 13.6243 92.828 15.6478 92.828H51.2138C53.2372 92.828 55.0029 91.7616 56.0146 90.1678C61.1357 89.2889 64.2646 87.6483 65.7802 85.0037C68.5029 80.2654 65.7177 73.2187 61.4521 62.4297C60.9404 61.1406 60.3974 59.9766 59.7919 58.8711C59.6162 57.8867 59.2216 56.9492 58.5653 56.1641C58.2646 55.8008 57.913 55.4883 57.5419 55.2149C51.4521 46.6524 43.2259 43.8709 40.4249 43.1409V39.1253C42.6749 37.9847 44.6085 36.3167 46.0655 34.2815C46.2335 34.2776 46.4015 34.2502 46.5616 34.1721C50.6124 32.2073 53.378 29.0588 54.5616 25.0744C56.046 20.0627 54.9405 14.1054 51.4444 8.30439C45.7803 -1.09011 36.1514 0.253586 34.3624 0.593486C29.1241 -0.488514 24.7491 -0.0901042 21.3544 1.78099C19.1747 2.98019 17.1825 4.92159 15.2685 7.70289C11.4052 13.3201 9.79583 19.4179 10.7412 24.8749C11.8662 31.3944 17.167 36.7499 23.0652 37.3359C23.1043 37.3398 23.1434 37.3398 23.1824 37.3398C23.3152 37.3398 23.4441 37.3085 23.5652 37.2695C24.4441 37.9921 25.409 38.6093 26.4285 39.125V43.1406C23.6277 43.871 15.4015 46.6523 9.31153 55.2186L9.31584 55.2149ZM3.11664 83.8359C0.956439 80.0742 3.7182 73.0859 7.58934 63.2889C7.60106 63.2615 7.61278 63.2381 7.6245 63.2068L12.4175 81.9178C10.9331 82.9451 9.9566 84.6561 9.9566 86.5936V87.1327C9.9566 87.3007 9.99175 87.4608 10.0074 87.6288C6.36678 86.8593 4.15174 85.6367 3.11664 83.8359ZM51.2146 90.4843H15.6486C14.4728 90.4843 13.4416 89.8749 12.8439 88.957C12.8049 88.707 12.6955 88.4843 12.5236 88.3124C12.3869 87.9452 12.301 87.5507 12.301 87.1366V86.5976C12.301 84.7499 13.8049 83.2499 15.6487 83.2499H51.2147C53.0624 83.2499 54.5624 84.7499 54.5624 86.5976V87.1366C54.5624 87.5468 54.4764 87.9335 54.3436 88.2968C54.1678 88.4687 54.0585 88.6992 54.0194 88.957C53.4217 89.875 52.3904 90.4843 51.2146 90.4843ZM63.7496 83.8359C62.7144 85.6367 60.4996 86.8593 56.859 87.6289C56.8747 87.4609 56.9098 87.3007 56.9098 87.1328V86.5937C56.9098 84.6562 55.9333 82.9453 54.4489 81.9179L59.2419 63.2029C59.2693 63.2732 59.3005 63.3396 59.3279 63.4139C63.1521 73.0858 65.9138 80.0699 63.7498 83.8319L63.7496 83.8359ZM33.4336 38.4609C26.1563 38.4609 20.2346 32.5429 20.2346 25.2659C20.2346 23.7503 20.2737 22.2893 20.3479 20.9026C20.5745 20.8987 20.801 20.8713 21.0276 20.8596C21.2503 20.844 21.4729 20.8401 21.6956 20.8166C21.9573 20.7893 22.219 20.7385 22.4768 20.6955C22.6956 20.6604 22.9143 20.633 23.1331 20.5862C23.3948 20.5315 23.6487 20.4572 23.9065 20.3869C24.1175 20.3283 24.3323 20.2815 24.5393 20.2151C24.7971 20.133 25.0471 20.0315 25.3011 19.9338C25.5003 19.8596 25.7034 19.7932 25.8987 19.7073C26.1565 19.5979 26.4065 19.4651 26.6604 19.3401C26.8401 19.2502 27.0276 19.1682 27.2034 19.0705C27.4651 18.926 27.7151 18.7619 27.969 18.6018C28.1253 18.5041 28.2854 18.4143 28.4378 18.3088C28.7112 18.1213 28.9651 17.9143 29.2268 17.7073C29.3479 17.6096 29.4768 17.5237 29.594 17.426C29.9651 17.1135 30.3167 16.7776 30.6526 16.426L31.2151 15.8283C32.2737 14.6916 33.3401 13.5158 34.5081 13.6486C35.1761 13.7268 35.887 14.2736 36.6175 14.8439C37.3714 15.4104 38.1605 15.9337 38.973 16.422C39.266 16.5978 39.5746 16.7424 39.8715 16.9064C40.3988 17.1994 40.9262 17.4924 41.4731 17.7502C41.852 17.9299 42.2426 18.0744 42.6293 18.2346C43.1136 18.4377 43.598 18.6408 44.0941 18.8166C44.5003 18.9611 44.9105 19.0744 45.3246 19.1955C45.6917 19.3049 46.055 19.4416 46.4262 19.5353C46.5629 21.258 46.6293 23.1798 46.6293 25.2619C46.6293 32.5392 40.7074 38.4569 33.4303 38.4569L33.4336 38.4609ZM33.4336 40.8047C35.0547 40.8047 36.6172 40.5547 38.0898 40.0898V44.0703C38.0898 44.6367 38.4961 45.1211 39.0508 45.2226C39.1406 45.2383 47.125 46.7968 53.6208 54.0664H13.2418C19.7379 46.8008 27.7218 45.2422 27.8118 45.2226C28.3704 45.1211 28.7727 44.6367 28.7727 44.0703V40.0898C30.2415 40.5508 31.8079 40.8047 33.4289 40.8047H33.4336Z" fill="white"/>
</svg>
