<svg width="75" height="90" viewBox="0 0 75 90" fill="none" xmlns="http://www.w3.org/2000/svg">
<path fill-rule="evenodd" clip-rule="evenodd" d="M74.4611 24.3593L57.6721 87.0313C57.2268 88.586 55.633 89.5118 54.0627 89.1211L8.7697 76.9801C7.215 76.5348 6.2892 74.9371 6.6799 73.3707L6.87912 72.6402H49.8321C52.4844 72.6324 54.6368 70.484 54.6407 67.8277V15.9997L72.3707 20.7497C73.9254 21.1911 74.8518 22.789 74.4611 24.3593ZM9.7931 9.7893C10.1681 9.4143 10.3829 8.90258 10.3829 8.3713V0.9299L0.933741 10.3908H8.36344H8.35953C8.89859 10.3908 9.4142 10.1721 9.7931 9.7893ZM49.7931 70.7893H2.9531C1.3125 70.762 0 69.426 0 67.7893V12.2383H8.3594C9.3867 12.2422 10.375 11.836 11.1016 11.1094C11.8399 10.3867 12.2657 9.4024 12.2813 8.3711V0H49.8323C51.4885 0 52.8323 1.3438 52.8323 3V67.828C52.805 69.4647 51.469 70.7811 49.8323 70.7811L49.7931 70.7893ZM45.7931 55.7893C45.7931 55.5432 45.6954 55.3049 45.5236 55.1291C45.3478 54.9534 45.1095 54.8557 44.8595 54.8596H7.92951C7.66779 54.8323 7.40607 54.9182 7.21076 55.094C7.01545 55.2698 6.90607 55.5198 6.90607 55.7854C6.90607 56.0471 7.01545 56.301 7.21076 56.4768C7.40607 56.6526 7.66779 56.7385 7.92951 56.7112H44.8515C45.3554 56.7151 45.7695 56.3127 45.7812 55.8088L45.7931 55.7893ZM45.7931 48.9807C45.7931 48.4651 45.3751 48.051 44.8595 48.051H7.92951C7.41779 48.051 6.99982 48.4651 6.99982 48.9807C6.99982 49.4924 7.41779 49.9104 7.92951 49.9104H44.8515C45.3554 49.9104 45.7695 49.5041 45.7812 49.0002L45.7931 48.9807ZM45.7931 42.1799C45.7931 41.9338 45.6954 41.6955 45.5236 41.5197C45.3478 41.344 45.1095 41.2463 44.8595 41.2502H7.92951C7.41779 41.2502 6.99982 41.6643 6.99982 42.1799C6.99982 42.6916 7.41779 43.1096 7.92951 43.1096H44.8515C45.3554 43.1096 45.7695 42.7072 45.7812 42.1994L45.7931 42.1799ZM45.7931 35.3713C45.7931 34.8557 45.3751 34.4377 44.8595 34.4377H7.92951C7.41779 34.4377 6.99982 34.8557 6.99982 35.3713C6.99982 35.883 7.41779 36.301 7.92951 36.301H44.8515C45.3554 36.301 45.7695 35.8947 45.7812 35.3908L45.7931 35.3713ZM45.7931 28.5705C45.7931 28.3205 45.6954 28.0822 45.5236 27.9103C45.3478 27.7346 45.1095 27.6369 44.8595 27.6408H7.92951C7.41779 27.6408 6.99982 28.0549 6.99982 28.5705C6.99982 29.0822 7.41779 29.5002 7.92951 29.5002H44.8515C45.3515 29.5002 45.7617 29.1057 45.7812 28.6096L45.7931 28.5705ZM45.7931 21.7619V21.758C45.7931 21.2463 45.3751 20.8283 44.8595 20.8283H7.92951C7.41779 20.8283 6.99982 21.2463 6.99982 21.758C6.99982 22.2736 7.41779 22.6877 7.92951 22.6877H44.8515C45.0937 22.6916 45.332 22.5978 45.5039 22.426C45.6796 22.258 45.7773 22.0236 45.7812 21.7814L45.7931 21.7619ZM45.7931 14.9611C45.7931 14.7111 45.6954 14.4728 45.5236 14.297C45.3478 14.1252 45.1095 14.0275 44.8595 14.0314H26.8595C26.3478 14.0314 25.9298 14.4455 25.9298 14.9611C25.9298 15.4728 26.3478 15.8908 26.8595 15.8908H44.8595C45.3634 15.883 45.7697 15.4806 45.7814 14.9806L45.7931 14.9611Z" fill="white"/>
</svg>
